<?xml version="1.0" encoding="utf-8"?>
<!DOCTYPE svg PUBLIC "-//W3C//DTD SVG 20010904//EN" "http://www.w3.org/TR/2001/REC-SVG-20010904/DTD/svg10.dtd">
<svg version="1.0" width="1541.25pt" height="1234.5pt" viewBox="0 0 1541.25 1234.5" preserveAspectRatio="xMidYMid meet" xmlns="http://www.w3.org/2000/svg">
  <g transform="translate(0,1234.5)scale(.075,.075)">
    <path id="path1" fill='#69aec9' d="M 9915 -16450 c -428 31 -849 111 -1238 236 -293 94 -738 295 -929 420 -21 13 -40 24 -43 24 -3 0 -74 46 -158 102 -147 98 -327 232 -405 302 -155 139 -278 260 -378 371 -61 68 -83 95 -181 220 -48 60 -183 257 -196 285 -4 8 -16 28 -27 45 -11 17 -24 39 -30 50 -6 11 -26 48 -45 83 -63 111 -121 233 -159 332 -10 25 -23 54 -29 65 -5 11 -14 33 -18 50 -4 16 -19 64 -33 105 -14 41 -33 99 -41 128 -24 85 -65 255 -65 272 0 6 99 10 271 10 293 0 291 0 305 -56 7 -32 38 -129 53 -166 5 -12 19 -48 31 -78 25 -64 133 -282 161 -325 10 -17 23 -39 29 -50 16 -32 33 -57 68 -102 17 -23 32 -44 32 -48 0 -7 79 -113 124 -166 17 -19 56 -64 86 -100 68 -79 248 -259 319 -319 30 -25 59 -50 65 -56 6 -5 52 -41 101 -78 49 -37 97 -74 107 -81 23 -19 196 -135 201 -135 2 0 42 -23 88 -51 46 -28 156 -87 244 -130 485 -241 985 -383 1562 -446 198 -21 728 -24 913 -5 682 70 1257 246 1810 553 74 41 378 239 402 262 7 7 31 25 53 42 22 16 45 34 51 40 6 5 30 26 54 45 179 144 490 479 575 622 5 9 35 54 66 100 30 45 58 90 62 98 4 8 16 30 28 49 23 38 85 161 104 206 7 17 20 46 28 65 30 69 47 116 74 200 14 47 32 91 39 98 16 16 554 18 554 2 0 -10 -5 -31 -44 -188 -26 -101 -95 -316 -120 -374 -8 -18 -29 -69 -47 -113 -33 -78 -118 -248 -158 -316 -12 -19 -25 -43 -30 -54 -5 -11 -20 -36 -33 -55 -13 -19 -27 -42 -31 -50 -22 -47 -193 -289 -221 -315 -6 -5 -27 -30 -46 -55 -19 -25 -46 -58 -60 -74 -50 -59 -356 -363 -409 -406 -29 -25 -63 -53 -75 -63 -11 -10 -55 -44 -96 -75 -41 -32 -77 -60 -80 -63 -7 -7 -378 -249 -383 -249 -2 0 -42 -22 -88 -48 -227 -131 -506 -251 -813 -351 -358 -117 -677 -184 -1076 -227 -171 -18 -700 -26 -875 -14 z M 275 -13253 c -110 45 -193 123 -242 229 -22 48 -28 77 -31 154 -4 95 -4 95 118 475 67 209 965 3024 1995 6255 1029 3231 1883 5897 1896 5924 32 67 113 147 185 184 59 31 59 31 2559 30 2500 -1 2500 -1 2457 -22 -44 -21 -44 -21 -281 -646 -238 -625 -238 -625 -2267 -628 -2030 -2 -2030 -2 -2660 -1980 -631 -1977 -631 -1977 1274 -1980 1807 -2 1904 -3 1899 -20 -2 -9 -113 -300 -245 -647 -240 -630 -240 -630 -2108 -635 -1868 -5 -1868 -5 -2254 -1215 -213 -665 -390 -1219 -393 -1231 -7 -20 -7 -20 60 -3 64 17 179 18 1795 18 951 1 1728 -2 1728 -7 0 -4 -110 -295 -244 -647 -243 -640 -243 -640 -1996 -645 -1754 -5 -1754 -5 -2090 -1060 -185 -580 -355 -1114 -378 -1187 -46 -144 -12 -105 -433 -497 -272 -255 -265 -251 -344 -219 z M 20179 -13233 c -24 21 -66 58 -93 83 -47 43 -82 75 -291 270 -49 46 -130 122 -179 169 -89 86 -89 86 -461 1251 -371 1165 -371 1165 -2110 1170 -1738 5 -1738 5 -1981 645 -134 352 -244 643 -244 647 0 13 3431 10 3490 -3 28 -6 54 -9 56 -6 3 3 -170 553 -383 1224 -389 1218 -389 1218 -2242 1223 -1853 5 -1853 5 -2097 642 -134 351 -244 642 -244 648 0 7 641 11 1888 12 1889 3 1889 3 1258 1980 -630 1978 -630 1978 -2645 1980 -2014 3 -2014 3 -2252 628 -212 559 -241 627 -268 648 -31 22 -31 22 2447 20 2477 -1 2477 -1 2531 -31 67 -36 149 -117 178 -177 12 -25 897 -2791 1967 -6148 1070 -3356 1969 -6173 1997 -6260 49 -152 51 -160 47 -252 -3 -81 -8 -105 -36 -163 -38 -82 -115 -161 -192 -198 -89 -43 -91 -43 -141 -2 z M 7707 -10190 c 468 1307 385 1194 888 1203 623 11 2822 12 3390 1 460 -9 460 -9 662 -574 111 -311 216 -602 232 -648 30 -82 30 -82 -2589 -82 -2619 0 -2619 0 -2583 100 z M 9013 -6548 c 15 42 446 1247 451 1266 7 22 7 22 826 22 819 0 819 0 826 -22 5 -20 431 -1211 450 -1260 6 -17 -59 -18 -1276 -18 -1022 0 -1281 3 -1277 12 z " className = "Basket"/>
  </g>
  <g transform="translate(0,1234.5)scale(.075,.075)">
    <path id="path1" d="M 6491 -13362 c -1 9 -603 12 -2973 12 -2852 1 -2976 1 -3040 19 -68 18 -118 44 -118 60 0 5 10 16 22 24 24 17 61 49 140 123 205 190 352 327 431 402 51 48 168 158 260 244 92 87 280 265 419 396 375 354 449 423 475 438 13 8 47 29 76 48 112 72 316 150 488 185 89 19 144 20 1134 21 572 0 1043 4 1047 8 3 4 976 2556 2161 5672 2155 5665 2155 5665 2211 5688 56 22 56 22 1088 22 1032 0 1032 0 1066 -23 32 -21 107 -215 2186 -5681 1184 -3113 2157 -5665 2162 -5673 7 -11 196 -13 1049 -14 989 0 1045 -1 1134 -20 167 -34 377 -113 475 -178 25 -17 59 -37 75 -45 17 -9 79 -62 139 -117 59 -56 215 -203 347 -327 132 -124 317 -298 410 -387 93 -89 182 -173 197 -186 14 -13 119 -112 233 -219 114 -107 226 -212 249 -233 95 -86 159 -142 177 -155 18 -12 17 -14 -11 -38 -72 -58 171 -54 -3125 -54 -2409 0 -3024 -3 -3028 -12 -4 -10 -6 -10 -6 -1 -1 7 -16 28 -35 45 -25 26 -39 54 -59 123 -15 50 -108 314 -207 587 -255 706 -2307 6429 -2632 7343 -248 698 -563 1683 -750 2345 -34 121 -65 220 -68 220 -3 0 -34 -98 -68 -217 -200 -702 -480 -1583 -707 -2225 -73 -208 -2106 -5886 -2364 -6603 -71 -198 -213 -592 -315 -875 -103 -283 -194 -540 -203 -570 -28 -95 -43 -118 -89 -136 -24 -9 -45 -24 -47 -33 -3 -9 -5 -10 -6 -3 z " fill="#1b3d4b" stroke="#1b3d4b" stroke-width="100" ClassName = "V-Shape"/>
  </g>
</svg>