<?xml version="1.0" encoding="UTF-8"?>

<!--Image by <a href="https://pixabay.com/users/openclipart-vectors-30363/?utm_source=link-attribution&utm_medium=referral&utm_campaign=image&utm_content=1294973">OpenClipart-Vectors</a> from <a href="https://pixabay.com//?utm_source=link-attribution&utm_medium=referral&utm_campaign=image&utm_content=1294973">Pixabay</a>-->
<svg width="30.127mm" height="31.123mm" version="1.1" viewBox="0 0 106.75079 110.27749" xmlns="http://www.w3.org/2000/svg" xmlns:xlink="http://www.w3.org/1999/xlink">
 <defs>
  <pattern id="g" patternTransform="matrix(1.05,0,0,1.425,430,440)" xlink:href="#a"/>
  <pattern id="f" patternTransform="matrix(1.3212 -.099716 .084665 1.1218 362 488)" xlink:href="#a"/>
  <pattern id="e" patternTransform="matrix(1.0905 0 0 1.8683 351.79 352.85)" xlink:href="#a"/>
  <pattern id="a" width="10" height="10" patternTransform="translate(0) scale(10)" patternUnits="userSpaceOnUse">
   <circle cx="2.567" cy=".81" r=".45"/>
   <circle cx="3.048" cy="2.33" r=".45"/>
   <circle cx="4.418" cy="2.415" r=".45"/>
   <circle cx="1.844" cy="3.029" r=".45"/>
   <circle cx="6.08" cy="1.363" r=".45"/>
   <circle cx="5.819" cy="4.413" r=".45"/>
   <circle cx="4.305" cy="4.048" r=".45"/>
   <circle cx="5.541" cy="3.045" r=".45"/>
   <circle cx="4.785" cy="5.527" r=".45"/>
   <circle cx="2.667" cy="5.184" r=".45"/>
   <circle cx="7.965" cy="1.448" r=".45"/>
   <circle cx="7.047" cy="5.049" r=".45"/>
   <circle cx="4.34" cy=".895" r=".45"/>
   <circle cx="7.125" cy=".34" r=".45"/>
   <circle cx="9.553" cy="1.049" r=".45"/>
   <circle cx="7.006" cy="2.689" r=".45"/>
   <circle cx="8.909" cy="2.689" r=".45"/>
   <circle cx="9.315" cy="4.407" r=".45"/>
   <circle cx="7.82" cy="3.87" r=".45"/>
   <circle cx="8.27" cy="5.948" r=".45"/>
   <circle cx="7.973" cy="7.428" r=".45"/>
   <circle cx="9.342" cy="8.072" r=".45"/>
   <circle cx="8.206" cy="9.315" r=".45"/>
   <circle cx="9.682" cy="9.475" r=".45"/>
   <circle cx="9.688" cy="6.186" r=".45"/>
   <circle cx="3.379" cy="6.296" r=".45"/>
   <circle cx="2.871" cy="8.204" r=".45"/>
   <circle cx="4.59" cy="8.719" r=".45"/>
   <circle cx="3.181" cy="9.671" r=".45"/>
   <circle cx="5.734" cy="7.315" r=".45"/>
   <circle cx="6.707" cy="6.513" r=".45"/>
   <circle cx="5.73" cy="9.67" r=".45"/>
   <circle cx="6.535" cy="8.373" r=".45"/>
   <circle cx="4.37" cy="7.154" r=".45"/>
   <circle cx=".622" cy="7.25" r=".45"/>
   <circle cx=".831" cy="5.679" r=".45"/>
   <circle cx="1.257" cy="8.519" r=".45"/>
   <circle cx="1.989" cy="6.877" r=".45"/>
   <circle cx=".374" cy="3.181" r=".45"/>
   <circle cx="1.166" cy="1.664" r=".45"/>
   <circle cx="1.151" cy=".093" r=".45"/>
   <circle cx="1.151" cy="10.093" r=".45"/>
   <circle cx="1.302" cy="4.451" r=".45"/>
   <circle cx="3.047" cy="3.763" r=".45"/>
  </pattern>
 </defs>
 <g transform="translate(-309.71 -363.79)">
  <path d="m347.06 400s2.8268 1.909 4.2932 2.7779c3.046 1.8049 6.3332 3.1877 9.3439 5.0508 4.213 2.6071 9.0507 4.1959 13.89 4.1669 1.8452-0.0111 4.268-0.34353 5.4296 1.894 0.75338 1.4513 4.1669 0.50508 4.1669 0.50508 1.1431-1.1751 2.7246 2.5855 3.1567 4.1669 0.92458 3.3832 0.84827 7.3972 2.9042 9.7227 2.5435 2.877 3.0021 6.1459 4.9245 9.4702 0.86492 1.4956 2.7779 5.3033 2.7779 5.3033 1.9901 0.36372 2.8786 0.17659 3.5355-0.12628l-10.733-30.305-41.543-15.152z" fill="#fff" fill-rule="evenodd" stroke="#f00" stroke-width=".35433"/>
  <path d="m315.42 390.86s2.0425 10.35 4.5457 14.9c2.219 4.0329 5.4207 7.5314 7.8287 11.364 1.7442 2.7762 4.3116 4.9429 6.566 7.3236 2.0873 2.2043 4.4553 4.7026 6.9448 6.4397 2.5071 1.7494 3.9006 4.0933 6.1872 6.1872 2.8986 2.6544 6.5666 5.9843 10.102 7.7024 6.3204 3.072 8.9484 7.8396 9.6596 7.9865 0.32242 0.25584 4.672 0 4.672 0l4.8614 8.0496 6.9448 4.4194 5.3033 3.283c0.39385 3.2236 3.2519 0.80607 4.9245-0.12628l1.389-1.2627-76.898-77.529z" fill="#fff" fill-rule="evenodd" stroke="#f00" stroke-width=".35433"/>
  <path d="m328.68 377.06c-3.5857 2.3259-8.543 6.3708-10.48 7.3867-4.4768 2.3478-3.1538 3.1081-4.2932 4.5457 5.9843-1.8857 11.715-4.2621 17.867-7.8287 4.2042-3.8139 8.4567-7.5794 11.68-12.374 0.98097-1.4847-0.75495-1.03-1.894-0.88389-4.6694 2.5968-5.223 4.0628-7.5762 5.9978-2.4878 2.0458-3.5774 2.0372-5.3033 3.1567z" fill="#fff" fill-rule="evenodd" stroke="#f00" stroke-linejoin="round" stroke-width=".35433"/>
  <path d="m328.87 377.2c-3.5857 2.3259-8.543 6.3708-10.48 7.3867-4.4768 2.3478-3.1538 3.1081-4.2932 4.5457 5.9843-1.8857 11.715-4.2621 17.867-7.8287 4.2042-3.8139 8.4567-7.5794 11.68-12.374 0.98097-1.4847-0.75495-1.03-1.894-0.88389-4.6694 2.5968-5.223 4.0628-7.5762 5.9978-2.4878 2.0458-3.5774 2.0372-5.3033 3.1567z" fill="url(#e)" fill-rule="evenodd" stroke="#000" stroke-linejoin="round" stroke-width="1.063"/>
  <path d="m315.42 390.71s2.0425 10.35 4.5457 14.9c2.219 4.0329 5.4207 7.5314 7.8287 11.364 1.7442 2.7762 4.3116 4.9429 6.566 7.3236 2.0873 2.2043 4.4553 4.7026 6.9448 6.4397 2.5071 1.7494 3.9006 4.0933 6.1872 6.1872 2.8986 2.6544 6.5666 5.9843 10.102 7.7024 6.3204 3.072 8.9484 7.8396 9.6596 7.9865 0.32242 0.25584 4.672 0 4.672 0l4.8614 8.0496 6.9448 4.4194 5.3033 3.283c0.39385 3.2236 3.2519 0.80607 4.9245-0.12628l1.389-1.2627-76.898-77.529z" fill="url(#f)" fill-rule="evenodd" stroke="#000" stroke-width="1.063"/>
  <path d="m347.11 399.93s2.8268 1.909 4.2932 2.7779c3.046 1.8049 6.3332 3.1877 9.3439 5.0508 4.213 2.6071 9.0507 4.1959 13.89 4.1669 1.8452-0.0111 4.268-0.34353 5.4296 1.894 0.75338 1.4513 4.1669 0.50508 4.1669 0.50508 1.1431-1.1751 2.7246 2.5855 3.1567 4.1669 0.92458 3.3832 0.84827 7.3972 2.9042 9.7227 2.5435 2.877 3.0021 6.1459 4.9245 9.4702 0.86492 1.4956 2.7779 5.3033 2.7779 5.3033 1.9901 0.36372 2.8786 0.17659 3.5355-0.12628l-10.733-30.305-41.543-15.152z" fill="url(#g)" fill-rule="evenodd" stroke="#000" stroke-width="1.063"/>
  <path d="m316.3 390.59s1.9199 3.3542 4.1669 5.4296c-0.29839 3.2776 1.4134 4.232 2.1402 6.2088 5.2125 9.1132 6.3932 9.9569 9.5072 14.573 3.2248 4.7808 6.3107 7.0694 9.5811 10.533 1.2676 1.3423 3.4679 2.8019 4.8505 4.0253 2.0302 1.7963 4.442 3.7519 6.529 5.4819 2.8428 2.3564 4.5937 4.0081 7.5022 6.2828 2.6853 2.1001 5.1415 3.3898 7.6195 5.4232 1.3835 1.1353 2.1057 3.4484 3.5355 4.0406 0.97214 0.40267 3.3353-0.26786 3.3353-0.26786l3.0981 4.3824s2.2181 2.5287 3.5509 3.5355c1.8836 1.4229 6.3568 2.5687 6.3568 2.5687l3.283 3.8034c2.2714 2.1025 2.134 1.7076 2.8519 1.6352l6.566-7.0711c1.5152-1.2627 1.5152-2.357 0-3.283 0 0-6.2129-5.5714-9.0914-8.5863-3.2976-3.4539-5.7432-7.7226-9.3439-10.859-2.3417-2.0398-5.6149-3.2565-7.7024-5.5558-1.974-2.1742-2.3222-5.0386-4.1669-7.3236-3.4935-4.3274-12.879-10.607-12.879-10.607l-8.5863-9.5964c-0.58067-0.66571-1.139-1.4208-1.389-3.4093l-0.20024-2.3774c1.6988-0.45564 3.5208-0.17235 5.5558 1.389 0 0 8.5047 4.509 13.206 6.1196 2.3584 0.80791 4.7004 1.2059 7.145 1.6938 2.1857 0.43624 6.1269 0.1657 7.816 1.6198 1.6886 1.4537 3.5248 4.8136 3.7268 3.8034l2.0356-1.2563c3.1694 1.2729 3.5568 3.497 3.8034 5.3862 0.26 1.9918 0.0649 3.8361 0.59437 5.7931 1.0718 3.9617 3.5786 7.4756 5.4819 11.112 0.94421 1.8038 2.2269 5.4819 2.2269 5.4819 1.0102 1.9508 2.0203 2.0538 3.0304 2.0203 3.4764-0.35817 6.5401-1.7483 9.3439-3.7881 1.5014-1.0102 1.0849-2.0203 0.25254-3.0305 0 0-3.4479-7.6061-4.5457-11.617-0.96823-3.5372-0.64024-7.3694-1.7678-10.859-0.75233-2.3285-2.1377-4.4036-3.283-6.566-1.1289-2.1315-1.8827-4.5568-3.5355-6.3135-2.8802-3.0611-7.1379-6.235-10.607-6.8185-3.283-0.55225-6.4768-2.4852-9.849-3.7881 0 0-7.4938-2.6567-11.112-4.2932-1.9897-0.90001-4.0676-1.7118-5.8084-3.0304-1.5665-1.1866-2.5048-3.0671-4.0406-4.2932-1.2975-1.0358-2.8782-1.6568-4.2932-2.5254-2.1294-1.3071-6.3135-4.0406-6.3135-4.0406l-1.0102-1.5152c-8.948 8.0562-17.876 14.617-29.168 20.329z" fill="#fff" fill-rule="evenodd" stroke="#000" stroke-width="1.063"/>
  <path d="m314.66 388.82c-1.2112 0.93665-0.83773 1.599-0.75762 2.3991 0.1 0.99882 1.2238 2.0155 1.894 2.4622 0 0 1.4678-0.38116 2.3991-0.69448 2.6942-0.90641 5.1555-2.4242 7.5762-3.9143 2.5692-1.5786 6.2615-3.008 7.3236-5.3033 0.43285-0.20722 0.97907-0.12923 1.389-0.37881 1.8064-1.1 2.8015-3.1726 4.2932-4.672 1.7014-1.7102 3.4631-3.3646 5.3033-4.9245 0.89266-0.75667 2.7779-2.1466 2.7779-2.1466-0.71552-1.579-1.431-2.1864-2.1466-2.7779-0.79971-0.9735-1.4731-1.1478-2.2728-0.44194 0 0-2.9189 2.9173-4.1669 4.3563-0.82732 0.95391-1.3618 2.1562-2.2728 3.0305-1.1793 1.1317-2.6165 2.0368-4.1037 2.7148-0.52962 0.24142-1.4111 1.4145-1.6415 2.336-1.4318 0.2864-5.1597 2.2634-7.8287 3.6618-1.688 0.88444-3.4486 1.9777-5.1139 2.9042-0.87195 0.48508-2.6516 1.389-2.6516 1.389z" fill="#fff" fill-rule="evenodd" stroke="#000" stroke-width="1.063"/>
  <path d="m333.21 383.88c3.3473 4.1908 6.5206 7.7842 10.089 13.304 0.77381 0.47619 1.4286 0.47619 1.9643 0 0.5024-0.88708 1.1448-1.6108 0.26786-4.1071-2.1839-4.24-4.7332-8.3756-8.5714-12.143l-2.0536 2.4107z" fill="none" stroke="#000" stroke-width=".70866"/>
  <path d="m333.21 379.33c-0.61917 0.34218-0.94355 1.4755-0.53572 2.0536 0.39612 0.56143 1.8393 0.46428 2.0536 0.17857 0.26786-0.35714 0.4902-1.2208 0.17858-1.6964-0.32499-0.49602-1.1774-0.82254-1.6964-0.53571z" fill="#fff" fill-rule="evenodd" stroke="#000" stroke-width=".70866"/>
  <path d="m324.33 384.37c-1.075-0.11694-2.1197 0.0347-2.7232 0.625 0 0 2.2148 2.4001 2.9018 3.9286 0.19862 0.4419-0.40179 0.89286-0.40179 0.89286 0.58015 0.15008 2.1694 0.85287 2.9911 0.0446l-0.17853-0.93749c-0.21776-0.41667-0.70685-0.96726-1.1607-1.3839-1.3054-1.4339-0.75893-2.0536-1.4286-3.1696z" fill="#fff" fill-rule="evenodd" stroke="#000" stroke-linejoin="round" stroke-width=".70866"/>
  <path d="m338.44 372.76c0.42321-0.46766 0.32758-1.0218 1.3839-1.3839 0.58223-0.2232 1.1184-0.52006 2.2768 0.17857 0.99702 0.55435 1.994 1.6845 2.9911 2.9464 0.70094 1.2505-0.60434 1.7865-1.25 1.3839l-2.9911-2.9911c-0.41968-0.22889-0.80735-0.71384-1.3393-0.0446l-0.71429 0.49108c-0.15782 0.0198-0.41799 0.6025-0.35714-0.58041z" fill="#fff" fill-rule="evenodd" stroke="#000" stroke-width=".70866"/>
  <path d="m320.36 396.87 5.0893-3.1696 2.1875 3.5714c-1.6261 2.2872-2.7302 3.0617-4.4688 3.9994-1.3214 0.27029-1.1578-0.25242-1.484-0.56822-0.92592-1.4339-0.58025-2.5604-1.324-3.8329z" fill="#fff" fill-rule="evenodd" stroke="#000" stroke-width=".70866"/>
  <path d="m327.46 388.34s1.3772 1.5998 1.6071 2.5893c0.44334 1.9082 0.36784 4.134-0.58036 5.8482-1.3759 2.4874-6.236 5.0969-6.236 5.0969" fill="none" stroke="#000" stroke-width="1.063"/>
  <path d="m342.37 375.98s2.3021 2.8931 3.9732 3.3482c2.1409 0.58306 4.575-0.12939 6.5625-1.1161 0.58465-0.29025 1.4286-1.3393 1.4286-1.3393" fill="none" stroke="#000" stroke-width="1.063"/>
  <path d="m343.57 397.53c0.20047 0.67859 4.0418 2.1654 4.1996 3.6269 0.0907 0.83977-0.8297 1.4292-0.26786 2.7678 0.52041 1.2399 1.2768 3.9464 0.89286 4.3304" fill="none" stroke="#000" stroke-linecap="round" stroke-width="1px"/>
  <path d="m356.7 383.43s1.8138-0.20129 2.7232-0.17857c1.0333 0.0258 3.0804 0.35714 3.0804 0.35714" fill="none" stroke="#000" stroke-linecap="round" stroke-width="1.063"/>
  <path d="m370.8 453.08c2.8821 0.0525 2.9641-1.6522 6.1607-0.62499" fill="none" stroke="#000" stroke-linecap="round" stroke-width="1.063"/>
  <path d="m373.59 431.57c0.27185 0.27185 1.7149 2.9112 2.1275 3.6052 0.61899 1.0411 2.6786 2.4554 2.6786 2.4554" fill="none" stroke="#000" stroke-linecap="round" stroke-width="1.063"/>
  <path d="m383.3 413.7c1.1458 0.22786 2.2917 0.32813 3.4375-0.26786 1.4498-0.7042 3.1783-0.96237 5.2232-0.71428" fill="none" stroke="#000" stroke-linecap="round" stroke-width="1.063"/>
  <path d="m330.26 380.8c0.58124 1.2319 0.85554 2.694 2.7148 2.9673" fill="none" stroke="#000" stroke-width="1.063"/>
 </g>
</svg>
